<?xml version="1.0" encoding="utf-8"?>
<!-- Generator: Adobe Illustrator 16.0.0, SVG Export Plug-In . SVG Version: 6.00 Build 0)  -->
<!DOCTYPE svg PUBLIC "-//W3C//DTD SVG 1.1//EN" "http://www.w3.org/Graphics/SVG/1.1/DTD/svg11.dtd">
<svg version="1.1" id="Слой_1" xmlns="http://www.w3.org/2000/svg" xmlns:xlink="http://www.w3.org/1999/xlink" x="0px" y="0px"
	 width="127.286px" height="38.43px" viewBox="0 0 127.286 38.43" enable-background="new 0 0 127.286 38.43" xml:space="preserve">
<g display="none">
	<path display="inline" fill="#FFFFFF" d="M1.88,32.474V7.525h16.704v4.716H7.496v5.22h9.864v4.716H7.496v10.296H1.88z"/>
	<path display="inline" fill="#FFFFFF" d="M39.211,27.649v4.824H22.543V7.525h5.616v20.124H39.211z"/>
	<path display="inline" fill="#FFFFFF" d="M42.811,7.525h5.616v24.948h-5.616V7.525z"/>
	<path display="inline" fill="#FFFFFF" d="M68.528,32.474c-0.701-1.39-1.471-2.797-2.307-4.222
		c-0.834-1.426-1.793-2.631-2.876-3.615c-0.336,0.371-0.76,0.887-1.275,1.547s-1.031,1.362-1.545,2.105
		c-0.516,0.742-0.998,1.512-1.447,2.309s-0.783,1.423-1.002,1.876h-6.408c1.05-1.948,2.289-3.959,3.718-6.034
		c1.429-2.074,3.022-4.276,4.782-6.607l-8.14-12.307h6.804l4.754,7.225l4.857-7.225h6.408l-8.096,12.041
		c2.123,2.66,3.871,5.099,5.244,7.315c1.371,2.217,2.455,4.081,3.248,5.592H68.528z"/>
</g>
<g display="none">
	<g display="inline">
		
			<linearGradient id="SVGID_1_" gradientUnits="userSpaceOnUse" x1="76.0239" y1="47.7734" x2="126.1376" y2="47.7734" gradientTransform="matrix(1 0 0 -1 8.3999 14.4697)">
			<stop  offset="0" style="stop-color:#FF55A5"/>
			<stop  offset="0.5934" style="stop-color:#FF5779"/>
			<stop  offset="1" style="stop-color:#FF5860"/>
		</linearGradient>
		<path fill="url(#SVGID_1_)" d="M97.672-41.404c-2.615,0-4.506,0.726-5.67,2.178c-1.164,1.453-1.746,3.438-1.746,5.958
			c0,1.224,0.145,2.335,0.434,3.33c0.287,0.996,0.719,1.854,1.295,2.574s1.297,1.278,2.16,1.674s1.871,0.595,3.023,0.595
			c0.625,0,1.158-0.013,1.604-0.037c0.443-0.023,0.832-0.072,1.17-0.144v-8.676h5.615v12.348c-0.672,0.265-1.752,0.546-3.24,0.846
			s-3.324,0.45-5.508,0.45c-1.873,0-3.57-0.288-5.094-0.864c-1.525-0.575-2.826-1.415-3.906-2.52
			c-1.08-1.104-1.914-2.46-2.502-4.067c-0.588-1.608-0.883-3.444-0.883-5.509c0-2.088,0.324-3.936,0.973-5.544
			c0.648-1.607,1.535-2.97,2.664-4.086c1.127-1.116,2.453-1.962,3.979-2.538c1.523-0.576,3.15-0.864,4.877-0.864
			c1.176,0,2.238,0.078,3.186,0.234c0.949,0.156,1.766,0.336,2.449,0.54c0.684,0.204,1.248,0.414,1.691,0.63
			c0.443,0.216,0.762,0.384,0.955,0.504l-1.621,4.5c-0.768-0.408-1.65-0.761-2.646-1.062C99.934-41.254,98.848-41.404,97.672-41.404
			z"/>
		
			<linearGradient id="SVGID_2_" gradientUnits="userSpaceOnUse" x1="76.0239" y1="47.7559" x2="126.1353" y2="47.7559" gradientTransform="matrix(1 0 0 -1 8.3999 14.4697)">
			<stop  offset="0" style="stop-color:#FF55A5"/>
			<stop  offset="0.5934" style="stop-color:#FF5779"/>
			<stop  offset="1" style="stop-color:#FF5860"/>
		</linearGradient>
		<path fill="url(#SVGID_2_)" d="M134.536-33.269c0,2.137-0.318,4.015-0.953,5.634c-0.637,1.621-1.506,2.977-2.609,4.068
			c-1.105,1.093-2.418,1.914-3.943,2.466c-1.523,0.552-3.162,0.828-4.914,0.828c-1.703,0-3.311-0.276-4.822-0.828
			c-1.514-0.552-2.834-1.373-3.961-2.466c-1.129-1.092-2.016-2.447-2.664-4.068c-0.648-1.619-0.973-3.497-0.973-5.634
			c0-2.136,0.336-4.014,1.008-5.634s1.578-2.982,2.719-4.086c1.141-1.104,2.459-1.932,3.961-2.484
			c1.498-0.552,3.078-0.828,4.732-0.828c1.705,0,3.313,0.276,4.824,0.828s2.832,1.38,3.961,2.484
			c1.127,1.104,2.016,2.466,2.664,4.086S134.536-35.404,134.536-33.269z M115.493-33.269c0,1.224,0.15,2.329,0.449,3.312
			c0.301,0.984,0.732,1.831,1.297,2.539c0.563,0.708,1.254,1.254,2.07,1.638c0.814,0.384,1.752,0.575,2.807,0.575
			c1.033,0,1.963-0.191,2.791-0.575s1.523-0.93,2.088-1.638s0.996-1.555,1.295-2.539c0.301-0.982,0.451-2.088,0.451-3.312
			s-0.15-2.333-0.451-3.33c-0.299-0.996-0.73-1.848-1.295-2.556c-0.564-0.708-1.26-1.254-2.088-1.638
			c-0.828-0.383-1.758-0.576-2.791-0.576c-1.055,0-1.992,0.198-2.807,0.594c-0.816,0.396-1.508,0.948-2.07,1.656
			c-0.564,0.708-0.996,1.56-1.297,2.556C115.643-35.566,115.493-34.468,115.493-33.269z"/>
	</g>
</g>
<g>
	<linearGradient id="SVGID_3_" gradientUnits="userSpaceOnUse" x1="8.2031" y1="19.8857" x2="26.5713" y2="19.8857">
		<stop  offset="0" style="stop-color:#FF55A5"/>
		<stop  offset="0.5934" style="stop-color:#FF5779"/>
		<stop  offset="1" style="stop-color:#FF5860"/>
	</linearGradient>
	<path fill="url(#SVGID_3_)" d="M21.579,8.798h4.992v22.176h-4.992v-9.408h-8.384v9.408H8.203V8.798h4.992v8.479h8.384V8.798z"/>
</g>
<g display="none">
</g>
<g>
	<path fill="#FFFFFF" d="M31.953,30.974V8.798h14.849v4.192h-9.856v4.64h8.769v4.193h-8.769v9.151H31.953z"/>
	<path fill="#FFFFFF" d="M50.32,8.798h4.992v22.176H50.32V8.798z"/>
	<path fill="#FFFFFF" d="M75.249,26.686v4.288H60.432V8.798h4.992v17.888H75.249z"/>
	<path fill="#FFFFFF" d="M84.656,8.798c0.385,0.704,0.828,1.573,1.331,2.608s1.026,2.155,1.572,3.36
		c0.546,1.206,1.085,2.438,1.62,3.696c0.535,1.259,1.037,2.443,1.509,3.552c0.47-1.109,0.973-2.293,1.508-3.552
		c0.534-1.258,1.074-2.49,1.62-3.696c0.545-1.205,1.069-2.325,1.572-3.36c0.502-1.035,0.946-1.904,1.331-2.608h4.544
		c0.213,1.472,0.411,3.12,0.593,4.944c0.181,1.824,0.341,3.723,0.479,5.696c0.139,1.974,0.267,3.952,0.384,5.936
		c0.117,1.984,0.219,3.852,0.305,5.601H98.16c-0.064-2.154-0.149-4.501-0.256-7.04c-0.107-2.539-0.268-5.099-0.48-7.68
		c-0.386,0.896-0.813,1.888-1.284,2.976c-0.471,1.089-0.937,2.177-1.396,3.265s-0.903,2.127-1.332,3.119
		c-0.428,0.992-0.792,1.84-1.091,2.545h-3.488c-0.3-0.705-0.663-1.553-1.092-2.545c-0.428-0.992-0.872-2.031-1.332-3.119
		s-0.926-2.176-1.396-3.265c-0.471-1.088-0.898-2.08-1.284-2.976c-0.213,2.582-0.373,5.141-0.479,7.68
		c-0.107,2.539-0.192,4.886-0.256,7.04h-4.864c0.085-1.749,0.187-3.616,0.304-5.601c0.117-1.983,0.245-3.962,0.385-5.936
		c0.138-1.973,0.298-3.872,0.479-5.696c0.181-1.824,0.379-3.472,0.592-4.944H84.656z"/>
	<path fill="#FFFFFF" d="M113.52,27.166c0.703,0,1.284-0.059,1.743-0.176s0.827-0.277,1.104-0.48s0.469-0.443,0.576-0.721
		c0.106-0.276,0.16-0.586,0.16-0.928c0-0.725-0.342-1.328-1.024-1.808s-1.856-0.997-3.52-1.552
		c-0.726-0.256-1.451-0.549-2.177-0.881c-0.726-0.33-1.376-0.746-1.952-1.248c-0.575-0.501-1.045-1.109-1.407-1.824
		c-0.363-0.715-0.544-1.584-0.544-2.608c0-1.024,0.191-1.946,0.575-2.768c0.385-0.821,0.929-1.52,1.633-2.096
		s1.557-1.019,2.56-1.328c1.003-0.309,2.133-0.464,3.392-0.464c1.493,0,2.784,0.16,3.872,0.48c1.089,0.32,1.984,0.672,2.688,1.056
		l-1.44,3.936c-0.619-0.32-1.307-0.603-2.063-0.848c-0.758-0.245-1.67-0.368-2.736-0.368c-1.195,0-2.054,0.166-2.576,0.496
		c-0.522,0.331-0.783,0.837-0.783,1.52c0,0.405,0.096,0.747,0.287,1.024c0.192,0.278,0.465,0.528,0.816,0.752
		c0.352,0.224,0.757,0.427,1.216,0.608c0.459,0.182,0.965,0.368,1.521,0.56c1.151,0.427,2.154,0.848,3.008,1.264
		c0.853,0.416,1.563,0.901,2.128,1.456c0.564,0.556,0.986,1.206,1.264,1.952s0.416,1.653,0.416,2.72
		c0,2.069-0.726,3.675-2.176,4.815c-1.451,1.143-3.638,1.713-6.56,1.713c-0.981,0-1.867-0.059-2.656-0.176
		c-0.79-0.118-1.488-0.262-2.096-0.433c-0.608-0.171-1.132-0.353-1.568-0.544c-0.438-0.191-0.806-0.373-1.104-0.544l1.408-3.968
		c0.661,0.363,1.478,0.688,2.448,0.976S112.112,27.166,113.52,27.166z"/>
</g>
</svg>
